<?xml version="1.0" encoding="utf-8"?>
<!-- Generator: Adobe Illustrator 16.0.0, SVG Export Plug-In . SVG Version: 6.00 Build 0)  -->
<!DOCTYPE svg PUBLIC "-//W3C//DTD SVG 1.1//EN" "http://www.w3.org/Graphics/SVG/1.1/DTD/svg11.dtd">
<svg version="1.1" id="Layer_1" xmlns="http://www.w3.org/2000/svg" xmlns:xlink="http://www.w3.org/1999/xlink" x="0px" y="0px"
	 width="64px" height="64px" viewBox="0 0 64 64" enable-background="new 0 0 64 64" xml:space="preserve">
<g>
	<path fill-rule="evenodd" clip-rule="evenodd" fill="#D65A41" d="M33.015,59.848c-1.195,0.361-2.542,0.088-3.486-0.855
		L19.296,48.748l-0.003-0.002L5.263,34.703c-7.017-7.024-7.017-18.413,0-25.438c7.018-7.024,18.396-7.024,25.413,0l1.326,1.326
		l1.013-1.018V59.848L33.015,59.848z"/>
	<path fill-rule="evenodd" clip-rule="evenodd" fill="#B24730" d="M44.707,48.74c-0.002,0.002-0.004,0.002-0.007,0.004
		L34.471,58.986c-0.678,0.68-1.566,1.02-2.456,1.021V10.571l1.31-1.312c7.018-7.024,18.395-7.024,25.413,0
		c7.018,7.024,7.018,18.413,0,25.438L44.707,48.74L44.707,48.74z"/>
	<path fill-rule="evenodd" clip-rule="evenodd" fill="#FFFFFF" d="M18.016,16.019v0.029c-0.225,0-0.444-0.02-0.673,0.006
		c-3.063,0.348-5.297,2.951-5.297,5.963h-0.031c0,1.105-0.896,2-1.998,2c-1.105,0-2.001-0.895-2.001-2c0-5.523,4.477-10,10-10
		c1.105,0,2,0.896,2,2.002C20.016,15.121,19.121,16.019,18.016,16.019L18.016,16.019z"/>
</g>
</svg>
